<svg width="213" height="45" viewBox="0 0 213 45" fill="none" xmlns="http://www.w3.org/2000/svg">
<path d="M50.5179 10.6418H66.4936V14.4093H54.4303V21.1111H64.5011V24.8786H54.4303V32.2325H66.4936V36H50.5179V10.6418ZM76.578 26.4726C76.578 27.7284 76.8557 28.8514 77.4112 29.8416C77.9908 30.8076 78.7394 31.5804 79.6572 32.16C80.599 32.7155 81.6013 32.9932 82.6639 32.9932C83.8715 32.9932 84.922 32.6793 85.8156 32.0514C86.7092 31.4235 87.4337 30.7714 87.9891 30.0952L90.054 32.631C89.5952 33.2831 88.9672 33.8989 88.1703 34.4785C87.3733 35.034 86.4677 35.4928 85.4533 35.8551C84.439 36.1932 83.3764 36.3623 82.2654 36.3623C80.5266 36.3623 78.9568 35.9275 77.5561 35.0581C76.1553 34.1887 75.0444 33.0053 74.2233 31.508C73.4263 30.0106 73.0278 28.3322 73.0278 26.4726C73.0278 24.5888 73.4263 22.9104 74.2233 21.4372C75.0444 19.9398 76.1553 18.7564 77.5561 17.887C78.9568 17.0176 80.5266 16.5829 82.2654 16.5829C84.0284 16.5829 85.5982 16.9451 86.9748 17.6697C88.3514 18.37 89.3778 19.2878 90.054 20.4228L87.9891 22.9587C87.4337 22.1375 86.6367 21.4372 85.5982 20.8575C84.5839 20.2538 83.5937 19.9519 82.6277 19.9519C81.4926 19.9519 80.4662 20.2417 79.5485 20.8213C78.6308 21.3768 77.9063 22.1496 77.3749 23.1398C76.8436 24.1058 76.578 25.2167 76.578 26.4726ZM114.331 26.4726C114.331 28.4046 113.896 30.1193 113.027 31.6167C112.182 33.0898 111.022 34.2491 109.549 35.0944C108.1 35.9396 106.47 36.3623 104.659 36.3623C102.847 36.3623 101.205 35.9396 99.732 35.0944C98.2588 34.2491 97.0875 33.0898 96.2181 31.6167C95.3728 30.1193 94.9502 28.4046 94.9502 26.4726C94.9502 24.5405 95.3728 22.8379 96.2181 21.3647C97.0875 19.8674 98.2588 18.6961 99.732 17.8508C101.205 17.0055 102.847 16.5829 104.659 16.5829C106.47 16.5829 108.1 17.0055 109.549 17.8508C111.022 18.6961 112.182 19.8674 113.027 21.3647C113.896 22.8379 114.331 24.5405 114.331 26.4726ZM110.527 26.4726C110.552 25.1926 110.298 24.0696 109.767 23.1036C109.259 22.1134 108.559 21.3526 107.666 20.8213C106.772 20.2659 105.77 19.9881 104.659 19.9881C103.548 19.9881 102.533 20.2659 101.616 20.8213C100.722 21.3526 100.01 22.1134 99.4784 23.1036C98.9713 24.0696 98.7298 25.1926 98.7539 26.4726C98.7298 27.7284 98.9713 28.8514 99.4784 29.8416C100.01 30.8076 100.722 31.5684 101.616 32.1238C102.533 32.6793 103.548 32.957 104.659 32.957C105.77 32.957 106.772 32.6793 107.666 32.1238C108.559 31.5684 109.259 30.8076 109.767 29.8416C110.298 28.8514 110.552 27.7284 110.527 26.4726ZM131.8 10.6418C133.757 10.6418 135.471 10.9799 136.945 11.6562C138.442 12.3082 139.686 13.2259 140.676 14.4093C141.666 15.5686 142.415 16.921 142.922 18.4666C143.429 19.9881 143.683 21.6062 143.683 23.3209C143.683 25.6394 143.236 27.7646 142.342 29.6967C141.449 31.6046 140.12 33.1381 138.357 34.2974C136.594 35.4325 134.409 36 131.8 36H121.875V10.6418H131.8ZM131.619 32.2325C133.527 32.2325 135.073 31.834 136.256 31.037C137.44 30.2159 138.309 29.1291 138.865 27.7767C139.42 26.4243 139.698 24.939 139.698 23.3209C139.698 21.727 139.42 20.2538 138.865 18.9013C138.309 17.5489 137.44 16.4621 136.256 15.641C135.073 14.8199 133.527 14.4093 131.619 14.4093H125.787V32.2325H131.619ZM168.282 16.9814V36H164.514V33.0657C163.935 33.8627 163.077 34.6113 161.942 35.3117C160.807 36.0121 159.491 36.3623 157.994 36.3623C156.4 36.3623 154.938 35.9396 153.61 35.0944C152.306 34.2491 151.268 33.0778 150.495 31.5804C149.722 30.0831 149.336 28.3684 149.336 26.4363C149.336 24.5043 149.734 22.8017 150.531 21.3285C151.328 19.8311 152.427 18.6719 153.828 17.8508C155.228 17.0055 156.822 16.5829 158.609 16.5829C159.938 16.5829 161.097 16.8727 162.087 17.4523C163.101 18.0319 163.91 18.7081 164.514 19.481V16.9814H168.282ZM158.863 32.9208C160.022 32.9208 161.037 32.6431 161.906 32.0876C162.775 31.508 163.452 30.7352 163.935 29.7691C164.418 28.779 164.659 27.668 164.659 26.4363C164.659 25.2288 164.418 24.142 163.935 23.176C163.452 22.21 162.775 21.4492 161.906 20.8938C161.037 20.3142 160.022 20.0244 158.863 20.0244C157.752 20.0244 156.762 20.3021 155.892 20.8575C155.023 21.413 154.347 22.1738 153.864 23.1398C153.381 24.1058 153.139 25.2047 153.139 26.4363C153.139 27.668 153.381 28.779 153.864 29.7691C154.347 30.7352 155.023 31.508 155.892 32.0876C156.762 32.6431 157.752 32.9208 158.863 32.9208ZM182.113 36H178.382V20.604H174.433V16.9814H178.382V12.1271H182.113V16.9814H186.533V20.604H182.113V36ZM210.004 16.9814V36H206.236V33.0657C205.657 33.8627 204.799 34.6113 203.664 35.3117C202.529 36.0121 201.213 36.3623 199.716 36.3623C198.122 36.3623 196.661 35.9396 195.332 35.0944C194.028 34.2491 192.99 33.0778 192.217 31.5804C191.444 30.0831 191.058 28.3684 191.058 26.4363C191.058 24.5043 191.456 22.8017 192.253 21.3285C193.05 19.8311 194.149 18.6719 195.55 17.8508C196.95 17.0055 198.544 16.5829 200.332 16.5829C201.66 16.5829 202.819 16.8727 203.809 17.4523C204.824 18.0319 205.633 18.7081 206.236 19.481V16.9814H210.004ZM200.585 32.9208C201.744 32.9208 202.759 32.6431 203.628 32.0876C204.497 31.508 205.174 30.7352 205.657 29.7691C206.14 28.779 206.381 27.668 206.381 26.4363C206.381 25.2288 206.14 24.142 205.657 23.176C205.174 22.21 204.497 21.4492 203.628 20.8938C202.759 20.3142 201.744 20.0244 200.585 20.0244C199.474 20.0244 198.484 20.3021 197.615 20.8575C196.745 21.413 196.069 22.1738 195.586 23.1398C195.103 24.1058 194.861 25.2047 194.861 26.4363C194.861 27.668 195.103 28.779 195.586 29.7691C196.069 30.7352 196.745 31.508 197.615 32.0876C198.484 32.6431 199.474 32.9208 200.585 32.9208Z" fill="white"/>
<path d="M28.8932 13.9302C29.3369 13.4952 30.0394 13.4717 30.5111 13.8761C31.0374 14.3272 31.072 15.1295 30.5866 15.6242L5.53722 41.1521C5.28827 41.4058 4.99941 41.617 4.68213 41.7773L3.20803 42.5219C2.83365 42.711 2.38017 42.6383 2.08358 42.3418C1.76892 42.0271 1.70841 41.5388 1.93675 41.1569L2.87214 39.5922C3.01753 39.349 3.19356 39.1255 3.3959 38.9271L28.8932 13.9302Z" fill="white"/>
<path fill-rule="evenodd" clip-rule="evenodd" d="M5.16129 9.80649H33.0323C34.1725 9.80649 35.0968 10.7308 35.0968 11.871V39.2258C35.0968 40.366 34.1725 41.2904 33.0323 41.2904H9.88123L6.78445 44.3871H33.0323C35.8828 44.3871 38.1936 42.0763 38.1936 39.2258V11.871C38.1936 9.02051 35.8828 6.70972 33.0323 6.70972H5.16129C2.31079 6.70972 0 9.02051 0 11.871V38.5841L3.09677 35.4874V11.871C3.09677 10.7308 4.02109 9.80649 5.16129 9.80649Z" fill="white"/>
<path d="M17.7292 14.3546C17.7729 13.8788 18.172 13.5146 18.6499 13.5146C19.1605 13.5146 19.5744 13.9286 19.5744 14.4392L19.5744 26.4978C19.5744 27.3138 18.913 27.9752 18.097 27.9752C17.2277 27.9752 16.5463 27.2283 16.6258 26.3627L17.7292 14.3546Z" fill="white"/>
<path d="M29.9948 26.9123C30.5273 26.8708 30.9382 26.4266 30.9382 25.8925C30.9382 25.3275 30.4802 24.8695 29.9153 24.8695L17.9657 24.8695C17.1439 24.8695 16.4776 25.5358 16.4776 26.3576C16.4776 27.2251 17.2166 27.9087 18.0814 27.8413L29.9948 26.9123Z" fill="white"/>
<path d="M9.49819 14.3714C9.52634 13.8903 9.92465 13.5146 10.4065 13.5146C10.909 13.5146 11.3164 13.922 11.3164 14.4245L11.3164 34.7212C11.3164 35.5514 10.6434 36.2243 9.81325 36.2243C8.94858 36.2243 8.26218 35.4966 8.31269 34.6334L9.49819 14.3714Z" fill="white"/>
<path d="M30.0388 33.0322C30.5518 33.0322 30.9677 33.4481 30.9677 33.9611C30.9677 34.4536 30.5832 34.8605 30.0915 34.8885L9.84775 36.0387C8.98472 36.0877 8.25797 35.4011 8.25797 34.5367C8.25797 33.7058 8.93153 33.0322 9.76241 33.0322L30.0388 33.0322Z" fill="white"/>
</svg>
